<svg width="800" height="800" viewBox="0 0 800 800" fill="none" xmlns="http://www.w3.org/2000/svg">
<path d="M556.909 517.177C558.764 511.367 561.129 505.687 562.36 499.706C565.578 484.036 582.864 479.056 592.227 490.816C592.518 491.176 592.931 491.406 593.713 492.026C596.105 487.536 598.628 483.266 600.738 478.736C607.728 463.775 641.385 390.082 651.443 368.321C653.712 363.421 656.059 358.491 658.934 354.041C662.812 348.021 668.404 345.2 674.919 346.671C684.159 348.751 694.024 349.701 702.289 354.271C713.657 360.561 724.788 368.481 734.223 378.012C759.43 403.473 777.094 435.484 791.662 469.795C794.423 476.305 797.29 482.856 799.136 489.726C801.466 498.396 798.951 506.127 793.192 512.317C785.552 520.527 715.469 595.24 704.786 606.32C696.75 614.651 685.214 613.121 678.884 602.89C667.735 584.86 643.926 545.828 642.704 543.918C638.158 550.628 633.762 556.939 629.542 563.389C623.449 572.689 617.514 582.119 611.438 591.43C609.082 595.05 606.409 598.41 604.088 602.06C598.813 610.341 592.034 613.321 583.356 610.161C582.802 609.961 582.195 609.971 581.378 609.851L569.121 640.672C567.802 643.982 566.633 647.372 565.112 650.552C559.441 662.373 544.309 663.673 536.898 653.052C536.141 651.972 535.385 650.902 534.488 649.622C520.333 668.783 502.898 683.003 483.801 694.404C463.632 706.434 442.24 714.515 419.714 719.395C401.391 723.365 382.98 725.445 364.481 726.345C346.993 727.205 329.417 727.245 311.93 726.305C297.686 725.545 283.451 723.385 269.357 720.795C252.846 717.765 236.263 714.594 220.156 709.624C204.048 704.654 189.181 698.324 174.172 691.304C154.442 682.073 136.823 668.523 120.988 652.322C98.9895 629.811 86.4693 601.93 84.4647 567.799C82.4337 533.098 86.7507 499.466 97.0992 467.105C102.049 451.635 109.54 437.044 117.022 422.843C125.445 406.853 135.161 391.742 145.193 374.752C138.388 367.401 130.308 359.441 123.01 350.651C103.957 327.7 85.0714 304.559 66.4405 281.168C52.0739 263.137 39.6329 243.367 28.7832 222.396C13.6605 193.175 4.45498 161.533 0.551214 128.002C-0.292844 120.732 -0.152168 113.062 0.867736 105.811C2.30088 95.631 11.2778 89.4307 20.1668 91.9008C42.6135 98.1311 63.9699 107.701 84.2361 120.332C108.38 135.382 129.639 154.613 148.464 177.464C163.217 195.375 176.66 214.456 188.363 235.026C202.272 259.477 215.733 284.268 229.229 309.019C230.689 311.699 231.938 311.359 234.048 310.659C245.741 306.759 257.356 302.459 269.226 299.419C277.763 297.239 286.625 296.179 295.383 295.749C307.665 295.149 320.045 294.739 332.284 295.789C350.361 297.329 368.191 301.199 385.591 307.209C393.557 309.959 401.47 312.919 409.77 315.909C414.738 308.869 419.881 301.369 425.218 294.069C444.218 268.068 463.078 241.927 482.412 216.246C493.604 201.385 505.026 186.634 517.37 173.054C539.667 148.533 563.705 126.292 591.014 109.272C609.68 97.6311 628.733 86.7706 647.821 76.0502C657.932 70.37 669.476 72.8201 674.154 81.7605C676.29 85.8406 677.697 91.9508 676.721 96.361C669.863 127.332 660.227 157.173 648.076 186.064C632.681 222.686 614.797 257.537 593.194 289.778C582.037 306.439 570.071 322.53 557.384 337.7C543.123 354.771 527.674 370.561 512.648 386.782C510.125 389.512 507.109 391.642 503.496 394.772C531.622 429.654 547.87 471.045 556.882 517.187L556.909 517.177Z" fill="#473B08"/>
<path d="M692.723 593C695.528 590.11 697.919 587.72 700.249 585.24L779.054 501.296C784.163 495.876 784.286 495.976 781.332 488.666C768.82 457.765 753.996 428.494 733.502 403.463C718.414 385.042 701.515 369.741 678.576 365.861C674.031 365.091 671.217 365.531 668.817 370.851C650.617 411.143 603.904 512.467 598.778 523.457L578.863 502.906C570.853 529.877 562.316 555.398 555.493 581.559L557.164 582.409L561.296 575.069L559.45 586.52L560.769 586.99L563.96 582.929V591.95L567.565 588.06L566.923 595.65L568.497 596.18L578.432 572.039L589.475 593.05L643.328 511.627L692.723 592.97V593Z" fill="#473B08"/>
<path d="M522.733 459.715C516.605 444.714 508.411 431.154 499.416 418.223C493.666 409.963 487.74 401.863 481.752 393.502C482.271 392.682 482.711 391.752 483.335 391.052C486.826 387.172 490.149 383.042 493.93 379.562C533.126 343.54 566.782 301.739 595.155 254.387C598.725 248.437 603.042 242.777 602.62 234.906C601.169 207.855 599.244 180.764 592.342 154.633C590.68 148.353 587.022 142.763 584.279 136.863C583.048 137.333 581.597 137.463 580.613 138.313C569.403 147.893 557.955 157.163 547.167 167.324C527.481 185.854 510.134 207.155 493.675 229.306C472.204 258.197 451.173 287.508 430.045 316.739C424.655 324.2 419.635 332.02 414.676 339.33C408.179 336.17 402.261 332.97 396.151 330.39C373.01 320.65 348.963 316.159 324.432 313.869C308.483 312.379 292.675 313.519 277.235 317.009C260.442 320.81 244.018 326.9 227.577 332.53C223.594 333.89 221.958 333.08 220.173 329.13C203.196 291.678 182.736 256.727 160.729 222.936C141.799 193.865 119.889 168.154 93.1954 148.133C90.76 146.303 87.8145 145.343 85.1065 143.973C78.7849 151.563 78.0991 161.563 76.9561 171.004C73.5095 199.415 71.1971 227.966 72.1467 256.717C73.0084 259.027 73.4392 261.767 74.802 263.587C103.421 301.769 134.123 337.7 165.793 372.591C166.954 373.872 167.991 375.302 168.246 375.622C158.97 388.502 149.448 400.253 141.421 413.203C128.154 434.604 116.908 457.415 109.848 482.576C104.59 501.306 101.953 520.607 100.871 540.168C100.555 545.948 101.311 551.818 101.574 557.639C103.869 552.238 105.68 546.488 108.556 541.528C114.042 532.078 124.382 527.587 133.71 531.078C161.538 541.508 178.683 563.059 185.013 595.88C188.011 611.431 186.508 626.121 180.687 640.392C176.652 650.302 171.455 658.842 160.887 660.452C161.714 661.402 162.426 662.552 163.384 663.273C176.968 673.493 191.854 680.853 207.442 685.483C229.757 692.114 252.371 697.584 275.028 702.554C287.241 705.234 299.796 707.034 312.211 707.114C337.322 707.284 362.494 706.904 387.543 705.094C414.254 703.154 440.183 696.094 464.722 683.533C468.837 681.423 472.406 677.943 476.231 675.093C463.746 675.323 451.911 672.683 443.761 660.972C430.362 641.742 424.866 620.101 430.863 595.71C436.604 572.369 449.836 555.578 466.63 541.598C474.543 535.008 483.37 531.037 492.743 530.537C500.761 530.107 508.525 533.768 514.908 539.988C528.105 552.848 534.488 569.469 534.576 588.95C534.612 596.98 532.774 605.02 531.789 613.051C531.605 614.581 531.376 616.101 531.165 617.631C532.844 615.901 535.13 614.541 536.115 612.391C542.674 598.08 544.16 582.509 544.459 566.639C544.749 551.288 541.812 536.438 539.421 521.517C535.992 500.176 530.796 479.406 522.751 459.695L522.733 459.715ZM237.828 509.177C234.197 518.577 230.003 527.707 222.67 534.188C220.428 536.168 217.764 537.568 215.179 538.978C209.526 542.048 204.734 539.458 200.628 535.248C193.137 527.577 191.124 516.977 189.629 506.297C188.908 501.186 188.75 495.976 188.425 491.946C189.321 467.275 193.761 445.104 206.792 426.204C209.464 422.333 213.096 419.123 216.736 416.373C222.468 412.033 230.258 414.213 235.542 421.043C241.31 428.494 243.965 437.684 245.012 447.124C247.368 468.415 245.504 489.326 237.828 509.187V509.177ZM306.232 537.728C301.854 541.998 297.132 545.818 292.455 549.658C291.76 550.228 290.265 550.518 289.632 550.058C283.161 545.378 277.086 540.188 274.307 531.537C274.114 530.937 274.193 530.237 274.105 529.067C285.869 527.027 297.352 526.457 309.617 530.857C308.369 533.498 307.771 536.228 306.232 537.728ZM397.786 541.178C380.21 561.529 361.184 553.088 354.484 528.447C346.035 497.376 351.785 468.495 368.376 442.404C371.084 438.144 374.9 434.574 378.716 431.504C392.546 420.373 405.172 427.224 412.074 441.204C417.032 451.254 418.844 460.355 419.529 479.016C418.307 500.486 413.296 523.227 397.786 541.178ZM779.002 501.076C752.704 529.017 695.484 589.89 692.67 592.78L643.275 511.437L589.423 592.86L578.38 571.849L568.444 595.99L566.87 595.46L567.512 587.87L563.907 591.76V582.739L560.716 586.8L559.397 586.33L561.243 574.879L557.111 582.219L555.44 581.369C562.272 555.208 570.809 529.687 578.81 502.716L598.725 523.267C603.851 512.267 650.564 410.943 668.764 370.661C671.164 365.351 673.969 364.901 678.523 365.671C701.463 369.551 718.361 384.842 733.449 403.273C753.944 428.304 768.767 457.575 781.279 488.476C784.242 495.796 784.11 495.686 779.002 501.106V501.076Z" fill="#FDC24C"/>
<path d="M476.275 675.333C463.79 675.563 451.955 672.923 443.805 661.212C430.406 641.982 424.91 620.341 430.907 595.95C436.648 572.609 449.88 555.818 466.674 541.838C474.587 535.248 483.414 531.278 492.787 530.778C500.805 530.347 508.569 534.008 514.952 540.228C528.149 553.088 534.532 569.709 534.62 589.19C534.656 597.22 532.818 605.26 531.833 613.291C531.649 614.821 531.42 616.341 531.209 617.871C525.837 632.511 516.491 643.712 506.151 653.702C497.13 662.412 487.617 670.613 476.275 675.343V675.333ZM111.158 607.42C121.401 628.281 136.77 643.232 153.827 656.292C156.051 657.992 158.557 659.222 160.931 660.672C171.499 659.062 176.696 650.522 180.731 640.612C186.543 626.351 188.055 611.661 185.057 596.1C178.727 563.279 161.582 541.728 133.754 531.298C124.434 527.807 114.086 532.288 108.6 541.748C105.724 546.708 103.913 552.458 101.618 557.859C101.117 575.289 103.562 591.94 111.158 607.41V607.42Z" fill="#CB2A13"/>
<path d="M85.1593 144.203C78.8376 151.793 78.1518 161.793 77.0088 171.234C73.5623 199.645 71.2499 228.196 72.1995 256.947C70.3971 254.957 68.2254 253.257 66.8626 250.937C57.9208 235.676 48.7153 220.586 40.433 204.865C28.3964 182.024 22.7341 156.523 18.5402 130.592C17.5027 124.182 17.0104 117.662 16.1839 110.452C40.7495 119.142 64.1106 128.562 85.1505 144.203H85.1593ZM606.102 233.226C618.973 209.995 629.375 185.294 639.372 160.343C641.693 154.553 644.401 148.943 646.405 143.013C648.137 137.893 649.034 132.422 650.441 127.152C653.466 115.802 656.569 104.481 659.972 91.9608C632.733 104.731 608.027 119.802 584.332 137.093C587.075 143.003 590.733 148.593 592.394 154.863C599.296 180.994 600.809 208.115 602.673 235.136C605.425 238.386 605.548 234.226 606.102 233.216V233.226ZM412.118 441.424C405.216 427.444 392.599 420.593 378.76 431.724C374.944 434.794 371.128 438.364 368.42 442.624C351.829 468.715 346.079 497.596 354.528 528.667C361.228 553.308 380.254 561.759 397.83 541.398C413.331 523.447 418.351 500.706 419.573 479.236C418.888 460.575 417.076 451.474 412.118 441.424ZM368.139 457.225C368.051 449.534 373.352 443.224 380.052 443.034C386.84 442.844 392.669 449.344 392.643 457.085C392.616 464.825 387.139 470.875 380.404 470.925C373.669 470.975 368.218 464.975 368.139 457.235V457.225ZM189.673 506.507C191.177 517.187 193.181 527.787 200.672 535.458C204.778 539.668 209.57 542.258 215.223 539.188C217.808 537.788 220.472 536.378 222.714 534.398C230.056 527.917 234.241 518.787 237.872 509.387C245.548 489.526 247.412 468.625 245.056 447.324C244.009 437.884 241.363 428.694 235.586 421.243C230.302 414.413 222.512 412.233 216.78 416.573C213.14 419.323 209.508 422.533 206.836 426.404C193.797 445.294 189.357 467.465 188.469 492.146C188.794 496.176 188.952 501.386 189.673 506.497V506.507ZM231.779 455.915C229.546 456.865 225.765 456.235 223.919 454.565C219.576 450.634 219.083 444.794 220.622 438.874C222.284 432.494 226.768 428.434 231.058 429.194C235.534 429.984 238.839 435.644 238.734 443.034C238.391 448.224 236.888 453.735 231.77 455.915H231.779ZM274.351 531.758C277.13 540.418 283.205 545.598 289.676 550.278C290.309 550.738 291.804 550.448 292.499 549.878C297.176 546.028 301.898 542.208 306.276 537.948C307.806 536.448 308.413 533.718 309.661 531.077C297.396 526.677 285.913 527.247 274.149 529.287C274.237 530.457 274.167 531.157 274.351 531.758Z" fill="#030201"/>
<path d="M380.404 470.915C373.59 470.955 368.218 464.965 368.139 457.225C368.051 449.534 373.352 443.224 380.052 443.034C386.84 442.844 392.669 449.344 392.643 457.085C392.616 464.825 387.139 470.875 380.404 470.925V470.915ZM231.067 429.204C226.768 428.444 222.292 432.504 220.631 438.884C219.092 444.804 219.576 450.634 223.928 454.575C225.774 456.245 229.555 456.875 231.788 455.925C236.896 453.755 238.4 448.244 238.752 443.044C238.857 435.664 235.56 430.004 231.076 429.204H231.067Z" fill="#FEFEFD"/>
</svg>
